<?xml version="1.0" encoding="UTF-8"?>
<svg version="1.1" xmlns="http://www.w3.org/2000/svg" width="256" height="256">
<path d="M0 0 C1.01252838 0.00141495 2.02505676 0.0028299 3.06826782 0.00428772 C6.28773001 0.00986482 9.50712149 0.02241313 12.7265625 0.03515625 C14.91536358 0.04017421 17.10416575 0.0447366 19.29296875 0.04882812 C24.64585727 0.05982675 29.99870483 0.07654205 35.3515625 0.09765625 C35.3515625 0.75765625 35.3515625 1.41765625 35.3515625 2.09765625 C36.47175781 2.37480469 37.59195313 2.65195312 38.74609375 2.9375 C40.21876552 3.30332292 41.69142092 3.66921178 43.1640625 4.03515625 C43.90205078 4.21755859 44.64003906 4.39996094 45.40039062 4.58789062 C53.22825169 6.53600084 53.22825169 6.53600084 56.3515625 8.09765625 C57.05539063 8.195625 57.75921875 8.29359375 58.484375 8.39453125 C62.47339594 9.37276527 65.68795276 11.30386109 69.2265625 13.34765625 C69.90847656 13.73050781 70.59039062 14.11335937 71.29296875 14.5078125 C83.5457723 21.48607586 83.5457723 21.48607586 85.3515625 25.09765625 C85.9909375 25.38640625 86.6303125 25.67515625 87.2890625 25.97265625 C89.84489474 27.36674656 90.07355034 28.53316053 91.3515625 31.09765625 C92.80829319 32.85770943 92.80829319 32.85770943 94.50390625 34.515625 C95.11556641 35.12986328 95.72722656 35.74410156 96.35742188 36.37695312 C96.99486328 37.00666016 97.63230469 37.63636719 98.2890625 38.28515625 C98.92263672 38.92646484 99.55621094 39.56777344 100.20898438 40.22851562 C100.82193359 40.83888672 101.43488281 41.44925781 102.06640625 42.078125 C102.62448975 42.63395264 103.18257324 43.18978027 103.75756836 43.76245117 C105.42682208 45.32650061 105.42682208 45.32650061 108.3515625 46.09765625 C108.69517593 47.42837737 109.025589 48.76250451 109.3515625 50.09765625 C110.68487158 52.2664294 112.04945672 54.36807692 113.4765625 56.47265625 C131.80307125 84.40224099 139.35248373 118.16837328 132.76000977 151.25024414 C126.71410503 178.47863576 113.72348954 201.6175941 93.41796875 220.90625 C91.50297262 222.93708711 90.54543772 224.62147061 89.3515625 227.09765625 C88.02562145 227.45927654 86.69217793 227.79493664 85.3515625 228.09765625 C85.0215625 229.08765625 84.6915625 230.07765625 84.3515625 231.09765625 C82.10718431 232.75263111 79.89848781 234.25246158 77.5390625 235.72265625 C76.59450195 236.33367187 76.59450195 236.33367187 75.63085938 236.95703125 C72.54950906 238.90995422 69.88625306 240.28799134 66.3515625 241.09765625 C65.7328125 241.40703125 65.1140625 241.71640625 64.4765625 242.03515625 C61.84918095 243.34884703 59.14712744 244.20815831 56.3515625 245.09765625 C56.3515625 245.75765625 56.3515625 246.41765625 56.3515625 247.09765625 C54.7015625 247.09765625 53.0515625 247.09765625 51.3515625 247.09765625 C51.3515625 247.75765625 51.3515625 248.41765625 51.3515625 249.09765625 C50.1346875 249.20078125 48.9178125 249.30390625 47.6640625 249.41015625 C41.44191678 250.08604428 35.42026125 251.60627588 29.3515625 253.09765625 C29.3515625 253.75765625 29.3515625 254.41765625 29.3515625 255.09765625 C24.71984622 256.00386161 20.31793977 256.23197715 15.6015625 256.22265625 C14.28671875 256.22523438 12.971875 256.2278125 11.6171875 256.23046875 C8.3515625 256.09765625 8.3515625 256.09765625 6.3515625 255.09765625 C4.04060999 254.96347191 1.72749369 254.86604545 -0.5859375 254.78515625 C-7.88617306 254.44236696 -14.80077563 253.20918802 -21.91186523 251.55737305 C-27.15519534 250.34789574 -32.28893551 249.60859189 -37.6484375 249.09765625 C-37.6484375 248.43765625 -37.6484375 247.77765625 -37.6484375 247.09765625 C-39.2984375 247.09765625 -40.9484375 247.09765625 -42.6484375 247.09765625 C-42.6484375 246.43765625 -42.6484375 245.77765625 -42.6484375 245.09765625 C-44.64351817 244.41640919 -46.64482443 243.75338416 -48.6484375 243.09765625 C-49.8446875 242.70578125 -51.0409375 242.31390625 -52.2734375 241.91015625 C-55.49482797 241.13463632 -56.66418583 240.96569872 -59.6484375 242.09765625 C-63.70807518 243.20890365 -67.84269618 243.82171776 -71.9921875 244.5 C-74.52614924 245.07014139 -76.36392841 245.90390662 -78.6484375 247.09765625 C-81.61994142 247.93351725 -84.61432266 248.45342925 -87.65625 248.96484375 C-94.74622041 250.23486504 -101.63182213 252.1499674 -108.5703125 254.0625 C-109.54226562 254.32417969 -110.51421875 254.58585938 -111.515625 254.85546875 C-112.38300293 255.09410645 -113.25038086 255.33274414 -114.14404297 255.57861328 C-116.715832 256.11162395 -119.02980515 256.19094833 -121.6484375 256.09765625 C-119.8041254 247.49038064 -117.69875325 239.03293344 -115.03659058 230.6385498 C-113.75368192 226.59038444 -112.52624319 222.52600021 -111.2980957 218.4609375 C-110.65660769 216.38525744 -109.99180419 214.31664034 -109.30395508 212.25585938 C-105.34379772 200.3062432 -103.1285739 191.42780226 -108.609375 179.64453125 C-109.85580227 177.20447505 -111.14792202 174.79895725 -112.47506714 172.40196228 C-115.54375203 166.37557084 -117.05242166 159.63595644 -118.6484375 153.09765625 C-118.89335938 152.09863281 -119.13828125 151.09960938 -119.390625 150.0703125 C-125.46816249 119.05822051 -117.45757896 88.71593918 -103.6484375 61.09765625 C-103.0296875 60.33453125 -102.4109375 59.57140625 -101.7734375 58.78515625 C-99.35252515 55.72341417 -97.39210704 52.58499534 -95.6484375 49.09765625 C-94.9884375 48.43765625 -94.3284375 47.77765625 -93.6484375 47.09765625 C-93.3184375 46.10765625 -92.9884375 45.11765625 -92.6484375 44.09765625 C-92.09414062 43.82695313 -91.53984375 43.55625 -90.96875 43.27734375 C-87.58025222 41.55457215 -85.16304915 38.90080238 -82.5234375 36.22265625 C-81.98589844 35.69285156 -81.44835937 35.16304687 -80.89453125 34.6171875 C-78.21032001 31.91958867 -76.3070015 29.49376349 -74.6484375 26.09765625 C-73.6584375 25.76765625 -72.6684375 25.43765625 -71.6484375 25.09765625 C-70.93171875 24.35902344 -70.215 23.62039062 -69.4765625 22.859375 C-66.07483854 19.53752578 -62.48313165 17.29952159 -58.3984375 14.91015625 C-57.68558594 14.47251953 -56.97273438 14.03488281 -56.23828125 13.58398438 C-51.75599316 10.93903059 -47.74533539 9.40941576 -42.60253906 8.5612793 C-40.34225106 8.14460563 -40.34225106 8.14460563 -37.6484375 6.09765625 C-32.68969704 4.44474276 -28.00307813 2.92959839 -22.8359375 2.09765625 C-21.81886719 1.93265625 -20.80179687 1.76765625 -19.75390625 1.59765625 C-18.21669922 1.35015625 -18.21669922 1.35015625 -16.6484375 1.09765625 C-15.3967981 0.83770874 -15.3967981 0.83770874 -14.11987305 0.57250977 C-9.39995989 -0.07312151 -4.75790887 -0.02518075 0 0 Z " fill="#40C352" transform="translate(121.6484375,-0.09765625)"/>
<path d="M0 0 C1.01252838 0.00141495 2.02505676 0.0028299 3.06826782 0.00428772 C6.28773001 0.00986482 9.50712149 0.02241313 12.7265625 0.03515625 C14.91536358 0.04017421 17.10416575 0.0447366 19.29296875 0.04882812 C24.64585727 0.05982675 29.99870483 0.07654205 35.3515625 0.09765625 C35.3515625 0.75765625 35.3515625 1.41765625 35.3515625 2.09765625 C36.47175781 2.37480469 37.59195313 2.65195312 38.74609375 2.9375 C40.21876552 3.30332292 41.69142092 3.66921178 43.1640625 4.03515625 C43.90205078 4.21755859 44.64003906 4.39996094 45.40039062 4.58789062 C53.22825169 6.53600084 53.22825169 6.53600084 56.3515625 8.09765625 C57.05539063 8.195625 57.75921875 8.29359375 58.484375 8.39453125 C62.47339594 9.37276527 65.68795276 11.30386109 69.2265625 13.34765625 C69.90847656 13.73050781 70.59039062 14.11335937 71.29296875 14.5078125 C83.5457723 21.48607586 83.5457723 21.48607586 85.3515625 25.09765625 C85.9909375 25.38640625 86.6303125 25.67515625 87.2890625 25.97265625 C89.84489474 27.36674656 90.07355034 28.53316053 91.3515625 31.09765625 C92.80829319 32.85770943 92.80829319 32.85770943 94.50390625 34.515625 C95.11556641 35.12986328 95.72722656 35.74410156 96.35742188 36.37695312 C96.99486328 37.00666016 97.63230469 37.63636719 98.2890625 38.28515625 C98.92263672 38.92646484 99.55621094 39.56777344 100.20898438 40.22851562 C100.82193359 40.83888672 101.43488281 41.44925781 102.06640625 42.078125 C102.62448975 42.63395264 103.18257324 43.18978027 103.75756836 43.76245117 C105.42682208 45.32650061 105.42682208 45.32650061 108.3515625 46.09765625 C108.69517593 47.42837737 109.025589 48.76250451 109.3515625 50.09765625 C110.68487158 52.2664294 112.04945672 54.36807692 113.4765625 56.47265625 C131.80307125 84.40224099 139.35248373 118.16837328 132.76000977 151.25024414 C126.71410503 178.47863576 113.72348954 201.6175941 93.41796875 220.90625 C91.50297262 222.93708711 90.54543772 224.62147061 89.3515625 227.09765625 C88.02562145 227.45927654 86.69217793 227.79493664 85.3515625 228.09765625 C85.0215625 229.08765625 84.6915625 230.07765625 84.3515625 231.09765625 C82.10718431 232.75263111 79.89848781 234.25246158 77.5390625 235.72265625 C76.59450195 236.33367187 76.59450195 236.33367187 75.63085938 236.95703125 C72.54950906 238.90995422 69.88625306 240.28799134 66.3515625 241.09765625 C65.7328125 241.40703125 65.1140625 241.71640625 64.4765625 242.03515625 C61.84918095 243.34884703 59.14712744 244.20815831 56.3515625 245.09765625 C56.3515625 245.75765625 56.3515625 246.41765625 56.3515625 247.09765625 C54.7015625 247.09765625 53.0515625 247.09765625 51.3515625 247.09765625 C51.3515625 247.75765625 51.3515625 248.41765625 51.3515625 249.09765625 C50.1346875 249.20078125 48.9178125 249.30390625 47.6640625 249.41015625 C41.44191678 250.08604428 35.42026125 251.60627588 29.3515625 253.09765625 C29.3515625 253.75765625 29.3515625 254.41765625 29.3515625 255.09765625 C24.71984622 256.00386161 20.31793977 256.23197715 15.6015625 256.22265625 C14.28671875 256.22523438 12.971875 256.2278125 11.6171875 256.23046875 C8.3515625 256.09765625 8.3515625 256.09765625 6.3515625 255.09765625 C4.04060999 254.96347191 1.72749369 254.86604545 -0.5859375 254.78515625 C-7.88617306 254.44236696 -14.80077563 253.20918802 -21.91186523 251.55737305 C-27.15519534 250.34789574 -32.28893551 249.60859189 -37.6484375 249.09765625 C-37.6484375 248.43765625 -37.6484375 247.77765625 -37.6484375 247.09765625 C-39.2984375 247.09765625 -40.9484375 247.09765625 -42.6484375 247.09765625 C-42.6484375 246.43765625 -42.6484375 245.77765625 -42.6484375 245.09765625 C-44.64351817 244.41640919 -46.64482443 243.75338416 -48.6484375 243.09765625 C-49.8446875 242.70578125 -51.0409375 242.31390625 -52.2734375 241.91015625 C-55.49482797 241.13463632 -56.66418583 240.96569872 -59.6484375 242.09765625 C-63.70807518 243.20890365 -67.84269618 243.82171776 -71.9921875 244.5 C-74.52614924 245.07014139 -76.36392841 245.90390662 -78.6484375 247.09765625 C-81.61994142 247.93351725 -84.61432266 248.45342925 -87.65625 248.96484375 C-94.74622041 250.23486504 -101.63182213 252.1499674 -108.5703125 254.0625 C-109.54226562 254.32417969 -110.51421875 254.58585938 -111.515625 254.85546875 C-112.38300293 255.09410645 -113.25038086 255.33274414 -114.14404297 255.57861328 C-116.715832 256.11162395 -119.02980515 256.19094833 -121.6484375 256.09765625 C-119.8041254 247.49038064 -117.69875325 239.03293344 -115.03659058 230.6385498 C-113.75368192 226.59038444 -112.52624319 222.52600021 -111.2980957 218.4609375 C-110.65660769 216.38525744 -109.99180419 214.31664034 -109.30395508 212.25585938 C-105.34379772 200.3062432 -103.1285739 191.42780226 -108.609375 179.64453125 C-109.85580227 177.20447505 -111.14792202 174.79895725 -112.47506714 172.40196228 C-115.54375203 166.37557084 -117.05242166 159.63595644 -118.6484375 153.09765625 C-118.89335938 152.09863281 -119.13828125 151.09960938 -119.390625 150.0703125 C-125.46816249 119.05822051 -117.45757896 88.71593918 -103.6484375 61.09765625 C-103.0296875 60.33453125 -102.4109375 59.57140625 -101.7734375 58.78515625 C-99.35252515 55.72341417 -97.39210704 52.58499534 -95.6484375 49.09765625 C-94.9884375 48.43765625 -94.3284375 47.77765625 -93.6484375 47.09765625 C-93.3184375 46.10765625 -92.9884375 45.11765625 -92.6484375 44.09765625 C-92.09414062 43.82695313 -91.53984375 43.55625 -90.96875 43.27734375 C-87.58025222 41.55457215 -85.16304915 38.90080238 -82.5234375 36.22265625 C-81.98589844 35.69285156 -81.44835937 35.16304687 -80.89453125 34.6171875 C-78.21032001 31.91958867 -76.3070015 29.49376349 -74.6484375 26.09765625 C-73.6584375 25.76765625 -72.6684375 25.43765625 -71.6484375 25.09765625 C-70.93171875 24.35902344 -70.215 23.62039062 -69.4765625 22.859375 C-66.07483854 19.53752578 -62.48313165 17.29952159 -58.3984375 14.91015625 C-57.68558594 14.47251953 -56.97273438 14.03488281 -56.23828125 13.58398438 C-51.75599316 10.93903059 -47.74533539 9.40941576 -42.60253906 8.5612793 C-40.34225106 8.14460563 -40.34225106 8.14460563 -37.6484375 6.09765625 C-32.68969704 4.44474276 -28.00307813 2.92959839 -22.8359375 2.09765625 C-21.81886719 1.93265625 -20.80179687 1.76765625 -19.75390625 1.59765625 C-18.21669922 1.35015625 -18.21669922 1.35015625 -16.6484375 1.09765625 C-15.3967981 0.83770874 -15.3967981 0.83770874 -14.11987305 0.57250977 C-9.39995989 -0.07312151 -4.75790887 -0.02518075 0 0 Z M-72.90234375 57.56640625 C-91.26626714 79.70373855 -100.19409229 107.44712195 -97.6484375 136.09765625 C-95.21897608 152.68045068 -89.99786942 169.07350837 -80.6484375 183.09765625 C-80.92331013 191.53003908 -83.48369601 199.57386506 -85.7109375 207.66015625 C-86.09240845 209.06428712 -86.47327274 210.46858295 -86.85351562 211.87304688 C-87.77817077 215.28317999 -88.71101212 218.69100845 -89.6484375 222.09765625 C-86.42808563 223.17110687 -85.5995819 223.05148477 -82.4375 222.2421875 C-81.19722046 221.92930786 -81.19722046 221.92930786 -79.93188477 221.61010742 C-78.61595337 221.26363159 -78.61595337 221.26363159 -77.2734375 220.91015625 C-76.3774585 220.68110596 -75.48147949 220.45205566 -74.55834961 220.21606445 C-68.38969407 218.61780929 -62.31710957 216.8315764 -56.27734375 214.796875 C-52.67493584 213.83873084 -50.01004983 213.37446527 -46.640625 215.1640625 C-45.94195312 215.65777344 -45.24328125 216.15148437 -44.5234375 216.66015625 C-20.26299313 231.89513769 8.14396919 232.58601749 35.24609375 226.44140625 C64.13282883 218.60138768 85.03107153 198.68920894 99.81640625 173.61328125 C112.85198213 149.45790103 114.98485356 120.67759589 107.21557617 94.60131836 C102.3102539 78.96776936 94.26201225 66.28933312 83.3515625 54.09765625 C82.74183594 53.40542969 82.13210937 52.71320312 81.50390625 52 C63.3111653 32.57123419 36.49441638 22.34217355 10.28515625 20.8125 C-22.08009368 20.07327383 -51.21349039 33.81015786 -72.90234375 57.56640625 Z " fill="#FCFDFC" transform="translate(121.6484375,-0.09765625)"/>
<path d="M0 0 C0.67740234 -0.03738281 1.35480469 -0.07476562 2.05273438 -0.11328125 C4.05078125 -0.1484375 4.05078125 -0.1484375 7.6875 0.375 C12.30754781 5.27102653 14.44819045 11.18448541 17 17.3125 C17.46728516 18.38435547 17.93457031 19.45621094 18.41601562 20.56054688 C18.85236328 21.60146484 19.28871094 22.64238281 19.73828125 23.71484375 C20.13700439 24.65706787 20.53572754 25.59929199 20.9465332 26.57006836 C21.82418924 29.89243747 21.52330737 32.06484309 20.6875 35.375 C19.3828125 37.60546875 19.3828125 37.60546875 17.8125 39.5625 C17.29945312 40.21605469 16.78640625 40.86960938 16.2578125 41.54296875 C14.6875 43.375 14.6875 43.375 12.9296875 44.73828125 C11.38801599 46.41254742 11.38801599 46.41254742 11.78125 49.234375 C13.39343422 54.82142721 17.09937937 58.88832105 20.6875 63.375 C21.71423828 64.67050781 21.71423828 64.67050781 22.76171875 65.9921875 C30.84690506 75.58680785 44.53566997 86.92689349 57.31640625 88.75 C60.41828425 88.25942292 61.19647078 87.24975396 63.125 84.8125 C63.723125 84.090625 64.32125 83.36875 64.9375 82.625 C66.05283718 81.19099505 67.13984784 79.7341739 68.1875 78.25 C68.661875 77.610625 69.13625 76.97125 69.625 76.3125 C70.02589844 75.72339844 70.42679687 75.13429688 70.83984375 74.52734375 C73.43647877 72.90787793 75.58122999 73.31894755 78.51391602 73.81225586 C82.17659718 74.76052949 85.36888826 76.40180169 88.6875 78.1875 C89.6775 78.70280273 89.6775 78.70280273 90.6875 79.22851562 C92.01427066 79.91911012 93.33853297 80.61454649 94.66015625 81.31494141 C96.79996469 82.4338056 98.95934379 83.5063495 101.125 84.57421875 C104.6875 86.375 104.6875 86.375 105.6875 87.375 C106.5098666 94.46000458 105.51726299 101.46049453 101.28125 107.3203125 C95.7186549 113.38144207 87.82463226 117.78728199 79.56640625 118.578125 C53.93113388 119.09688262 28.91278632 104.20805507 10.99365234 87.08300781 C3.75756494 79.98048157 -2.47790444 72.44781827 -8.16503906 64.06054688 C-9.20792845 62.52860893 -10.28574659 61.020596 -11.3671875 59.515625 C-19.35890866 47.92248443 -22.97510649 35.44320875 -21.3125 21.375 C-19.02369538 10.53329391 -11.22994279 0.23111201 0 0 Z " fill="#FBFEFB" transform="translate(86.3125,67.625)"/>
<path d="M0 0 C1.29131174 3.87393522 0.26506633 6.38686985 -0.9375 10.125 C-1.16203857 10.82786133 -1.38657715 11.53072266 -1.61791992 12.25488281 C-8.66974467 33.45963769 -20.74810296 51.43364397 -36.93359375 66.80859375 C-38.84858988 68.83943086 -39.80612478 70.52381436 -41 73 C-42.32594105 73.36162029 -43.65938457 73.69728039 -45 74 C-45.33 74.99 -45.66 75.98 -46 77 C-48.24437819 78.65497486 -50.45307469 80.15480533 -52.8125 81.625 C-53.44220703 82.03234375 -54.07191406 82.4396875 -54.72070312 82.859375 C-57.80205344 84.81229797 -60.46530944 86.19033509 -64 87 C-64.61875 87.309375 -65.2375 87.61875 -65.875 87.9375 C-68.50238155 89.25119078 -71.20443506 90.11050206 -74 91 C-74 91.66 -74 92.32 -74 93 C-75.65 93 -77.3 93 -79 93 C-79 93.66 -79 94.32 -79 95 C-80.216875 95.103125 -81.43375 95.20625 -82.6875 95.3125 C-88.90964572 95.98838803 -94.93130125 97.50861963 -101 99 C-101 99.66 -101 100.32 -101 101 C-105.63171628 101.90620536 -110.03362273 102.1343209 -114.75 102.125 C-116.06484375 102.12757813 -117.3796875 102.13015625 -118.734375 102.1328125 C-122 102 -122 102 -124 101 C-126.31095251 100.86581566 -128.62406881 100.7683892 -130.9375 100.6875 C-138.23773556 100.34471071 -145.15233813 99.11153177 -152.26342773 97.4597168 C-157.50675784 96.25023949 -162.64049801 95.51093564 -168 95 C-168 94.34 -168 93.68 -168 93 C-169.65 93 -171.3 93 -173 93 C-173 92.34 -173 91.68 -173 91 C-174.99508067 90.31875294 -176.99638693 89.65572791 -179 89 C-180.19625 88.608125 -181.3925 88.21625 -182.625 87.8125 C-185.84639047 87.03698007 -187.01574833 86.86804247 -190 88 C-194.05963768 89.1112474 -198.19425868 89.72406151 -202.34375 90.40234375 C-204.87771174 90.97248514 -206.71549091 91.80625037 -209 93 C-211.97150392 93.835861 -214.96588516 94.355773 -218.0078125 94.8671875 C-225.09778291 96.13720879 -231.98338463 98.05231115 -238.921875 99.96484375 C-239.89382812 100.22652344 -240.86578125 100.48820312 -241.8671875 100.7578125 C-242.73456543 100.9964502 -243.60194336 101.23508789 -244.49560547 101.48095703 C-247 102 -247 102 -252 102 C-251.34 98.7 -250.68 95.4 -250 92 C-249.67 92 -249.34 92 -249 92 C-249.33 94.31 -249.66 96.62 -250 99 C-249.27296875 98.74605469 -248.5459375 98.49210937 -247.796875 98.23046875 C-227.83560477 91.3975724 -227.83560477 91.3975724 -219 92 C-218.67 91.34 -218.34 90.68 -218 90 C-216.22509766 89.36157227 -216.22509766 89.36157227 -213.9140625 88.81640625 C-213.07061279 88.61225098 -212.22716309 88.4080957 -211.3581543 88.19775391 C-210.45621338 87.98812012 -209.55427246 87.77848633 -208.625 87.5625 C-206.79006108 87.12496883 -204.95542255 86.68617584 -203.12109375 86.24609375 C-202.23534668 86.03452637 -201.34959961 85.82295898 -200.43701172 85.60498047 C-196.70859299 84.67941229 -193.04199377 83.56193347 -189.38671875 82.3828125 C-183.52206788 81.44216473 -178.56778565 83.40153852 -173.3125 85.8125 C-155.21752475 93.82194784 -137.93529393 96.7114564 -118.23046875 96.06494141 C-116.31062747 96.0090441 -114.38939428 96.00534493 -112.46875 96.01171875 C-90.73155415 95.510497 -65.92712123 85.55343156 -49 72 C-48.10152344 71.30132812 -47.20304688 70.60265625 -46.27734375 69.8828125 C-32.32105888 58.78689413 -20.8558697 45.99238907 -13.28125 29.7421875 C-11.39745215 25.71040063 -9.20465278 21.86301991 -7 18 C-6.34 18 -5.68 18 -5 18 C-5.22558594 17.14148438 -5.45117188 16.28296875 -5.68359375 15.3984375 C-6.07505975 11.19380272 -5.06366643 9.30061182 -3.0625 5.625 C-2.49660156 4.56539062 -1.93070313 3.50578125 -1.34765625 2.4140625 C-0.90292969 1.61742187 -0.45820313 0.82078125 0 0 Z " fill="#E1E1E1" transform="translate(252,154)"/>
<path d="M0 0 C0.33 0 0.66 0 1 0 C1.08564209 0.64026123 1.17128418 1.28052246 1.25952148 1.94018555 C1.65052115 4.85618237 2.04398675 7.77184137 2.4375 10.6875 C2.57220703 11.69490234 2.70691406 12.70230469 2.84570312 13.74023438 C2.97783203 14.71669922 3.10996094 15.69316406 3.24609375 16.69921875 C3.36654053 17.59471436 3.4869873 18.49020996 3.61108398 19.4128418 C3.87533987 21.1707323 4.18723505 22.92198056 4.54101562 24.6640625 C5.05240453 27.26670561 5.09782657 29.6630069 5.0625 32.3125 C5.05347656 33.19550781 5.04445313 34.07851562 5.03515625 34.98828125 C5.02355469 35.65214844 5.01195312 36.31601563 5 37 C5.66 37 6.32 37 7 37 C7.36351562 38.07636719 7.72703125 39.15273437 8.1015625 40.26171875 C8.60780329 41.73751924 9.11573901 43.21273898 9.625 44.6875 C9.88990234 45.45682861 10.15480469 46.22615723 10.42773438 47.01879883 C12.53962005 53.01344842 15.09400569 58.55815281 18.09375 64.16796875 C19.25076198 67.78363119 18.49620848 69.58803809 17 73 C16.87399414 72.43047607 16.74798828 71.86095215 16.61816406 71.27416992 C15.97738281 68.91679338 15.11688053 66.83767202 14.109375 64.61328125 C4.52385365 43.09852029 -0.4779042 23.65625806 0 0 Z " fill="#E1E1E1" transform="translate(1,122)"/>
<path d="M0 0 C2 3 2 3 1.609375 5.0859375 C1.32578125 5.84132813 1.0421875 6.59671875 0.75 7.375 C0.45996094 8.17164062 0.16992188 8.96828125 -0.12890625 9.7890625 C-0.78519666 11.45480408 -1.47773425 13.10633194 -2.1875 14.75 C-3.14505649 17.00299366 -3.14505649 17.00299366 -3 19.5625 C-3 22 -3 22 -4 23.8125 C-5.26765035 26.58548513 -5.08817135 29.02188842 -5.00390625 32.02734375 C-4.99911828 34.44526904 -5.41482044 36.65928174 -6 39 C-6.33 39 -6.66 39 -7 39 C-7.33 43.95 -7.66 48.9 -8 54 C-8.33 54 -8.66 54 -9 54 C-9.54769756 34.566879 -7.56952941 17.98069445 0 0 Z " fill="#63C86F" transform="translate(33,82)"/>
<path d="M0 0 C7.88051904 7.88051904 8.08116586 25.17064055 8.13183594 35.68383789 C8.1219385 40.1231913 8.07701928 44.56131949 8 49 C6.27522989 45.99198027 5.73653627 43.7590733 5.65625 40.3046875 C5.61177734 38.98404297 5.61177734 38.98404297 5.56640625 37.63671875 C5.52194767 35.78776492 5.47767842 33.93880653 5.43359375 32.08984375 C5.38912109 30.77306641 5.38912109 30.77306641 5.34375 29.4296875 C5.32505859 28.62772949 5.30636719 27.82577148 5.28710938 26.99951172 C5.17105993 24.7714429 5.17105993 24.7714429 3 23 C3 21.10146203 3.00645579 19.20250942 3.05859375 17.3046875 C2.9659232 13.65964578 2.69546081 7.69546081 0 5 C-0.04063832 3.33382885 -0.042721 1.66611905 0 0 Z " fill="#68C476" transform="translate(225,87)"/>
<path d="M0 0 C5.99092437 5.99092437 4.22202508 20.10547691 4.25 28 C4.2312034 36.83064264 3.95981527 45.35581478 2 54 C0 52 0 52 -0.125 48.375 C-0.08375 47.26125 -0.0425 46.1475 0 45 C0.66 45 1.32 45 2 45 C2.02953103 41.39585115 2.04697407 37.79173424 2.0625 34.1875 C2.07087891 33.18267578 2.07925781 32.17785156 2.08789062 31.14257812 C2.11397602 23.03001896 1.58480787 15.09365509 0.4375 7.0625 C0 4 0 4 0 0 Z " fill="#DDDDDD" transform="translate(252,99)"/>
<path d="M0 0 C-6.87761949 7.79463542 -17.10713696 13.08436148 -27 16 C-29.3515625 15.62890625 -29.3515625 15.62890625 -31 15 C-27.30827405 11.46209597 -23.90609405 11.40884117 -19 11 C-19 10.34 -19 9.68 -19 9 C-15.91190305 7.23537317 -14.76687864 7 -11 7 C-10.938125 6.21625 -10.87625 5.4325 -10.8125 4.625 C-10 2 -10 2 -7.75 0.6875 C-5.03756762 0.0093919 -2.78200967 -0.15897198 0 0 Z " fill="#3EAE50" transform="translate(191,208)"/>
<path d="M0 0 C0.66 0.33 1.32 0.66 2 1 C1 4 1 4 -1 5 C-1.33 5.99 -1.66 6.98 -2 8 C-4.12444506 10.24584192 -6.32904751 12.37673776 -8.59375 14.48046875 C-11.70617592 17.44795326 -13.75238631 19.75811345 -15 24 C-16.32 23.67 -17.64 23.34 -19 23 C-13.53612101 14.47711834 -6.96098043 7.29245568 0 0 Z " fill="#61C96C" transform="translate(58,48)"/>
<path d="M0 0 C0 0.33 0 0.66 0 1 C-5.5731641 1.62294848 -11.10105107 2.04912193 -16.7109375 1.9609375 C-17.53231201 1.94869141 -18.35368652 1.93644531 -19.19995117 1.92382812 C-20.82023439 1.89202357 -22.44033018 1.84710879 -24.05981445 1.78710938 C-29.88840825 1.6745859 -34.59257341 2.85247226 -40 5 C-40.33 4.67 -40.66 4.34 -41 4 C-42.66617115 3.95936168 -44.33388095 3.957279 -46 4 C-42.19506841 1.69701509 -38.07030654 1.08911535 -33.75 0.375 C-32.95803223 0.24383789 -32.16606445 0.11267578 -31.35009766 -0.02246094 C-20.94229557 -1.61855885 -10.40853504 -1.73475584 0 0 Z " fill="#75CF7E" transform="translate(144,22)"/>
<path d="M0 0 C0.33 0 0.66 0 1 0 C0.98428955 0.74459473 0.9685791 1.48918945 0.95239258 2.25634766 C0.37476234 20.56205362 0.37476234 20.56205362 3.44140625 38.49609375 C4.02417427 41.10836157 3.88962447 42.50787317 3 45 C0.42337719 42.42337719 0.65884312 41.07916539 0.4375 37.5 C0.26480654 33.60401365 0.26480654 33.60401365 -1 30 C-1.09738781 27.91847333 -1.13076841 25.83380266 -1.1328125 23.75 C-1.13410156 22.5021875 -1.13539062 21.254375 -1.13671875 19.96875 C-1.13285156 18.6590625 -1.12898438 17.349375 -1.125 16 C-1.12886719 14.6903125 -1.13273437 13.380625 -1.13671875 12.03125 C-1.13542969 10.7834375 -1.13414063 9.535625 -1.1328125 8.25 C-1.13168457 7.10015625 -1.13055664 5.9503125 -1.12939453 4.765625 C-1 2 -1 2 0 0 Z " fill="#E9FEEF" transform="translate(24,109)"/>
<path d="M0 0 C0.60546875 1.80078125 0.60546875 1.80078125 1 4 C-2.01209677 9.68951613 -2.01209677 9.68951613 -5.1875 10.6875 C-5.785625 10.790625 -6.38375 10.89375 -7 11 C-7.33 11.99 -7.66 12.98 -8 14 C-10 13 -10 13 -11 12 C-13.05396726 12.40929986 -13.05396726 12.40929986 -15 13 C-11.93790396 9.82125268 -8.67937041 7.02615699 -5.25 4.25 C-4.26515625 3.45078125 -3.2803125 2.6515625 -2.265625 1.828125 C-1.51796875 1.22484375 -0.7703125 0.6215625 0 0 Z " fill="#DDDDDD" transform="translate(214,217)"/>
<path d="M0 0 C0 0.66 0 1.32 0 2 C0.66 2 1.32 2 2 2 C2.33 2.99 2.66 3.98 3 5 C3.66 5.66 4.32 6.32 5 7 C5 7.99 5 8.98 5 10 C4.34 10 3.68 10 3 10 C1.02 6.535 1.02 6.535 -1 3 C-11.06880967 1.90956565 -11.06880967 1.90956565 -19.9375 5.5 C-20.618125 6.325 -21.29875 7.15 -22 8 C-22 5 -22 5 -21 2 C-17.38306349 0.51224533 -13.24466491 0.66360111 -9.375 0.4375 C-8.694375 0.39431641 -8.01375 0.35113281 -7.3125 0.30664062 C-2.38678075 0 -2.38678075 0 0 0 Z " fill="#6ACD76" transform="translate(95,66)"/>
<path d="M0 0 C8.25 0 16.5 0 25 0 C20.4922221 3.38083343 20.4922221 3.38083343 16.77734375 3.3984375 C15.99166016 3.40230469 15.20597656 3.40617188 14.39648438 3.41015625 C13.58501953 3.39855469 12.77355469 3.38695312 11.9375 3.375 C11.12216797 3.38660156 10.30683594 3.39820313 9.46679688 3.41015625 C8.68240234 3.40628906 7.89800781 3.40242187 7.08984375 3.3984375 C6.37691162 3.39505371 5.66397949 3.39166992 4.92944336 3.38818359 C3 3 3 3 0 0 Z " fill="#48B85C" transform="translate(115,227)"/>
<path d="M0 0 C1.36138702 3.74085476 0.62045822 6.30572847 -0.43359375 10.078125 C-0.75263672 11.23828125 -1.07167969 12.3984375 -1.40039062 13.59375 C-1.74263672 14.8003125 -2.08488281 16.006875 -2.4375 17.25 C-2.77587891 18.47203125 -3.11425781 19.6940625 -3.46289062 20.953125 C-4.29995517 23.97127322 -5.1459559 26.98662083 -6 30 C-6.33 30 -6.66 30 -7 30 C-7.17337374 24.88547471 -6.9776214 21.7448686 -5 17 C-4.47013412 15.0077043 -3.97103511 13.00701916 -3.5 11 C-2.60133927 7.17092383 -1.54387685 3.62012503 0 0 Z " fill="#E0FCE6" transform="translate(39,192)"/>
<path d="M0 0 C0.66 0.33 1.32 0.66 2 1 C0.58611621 2.75224914 -0.83122783 4.50170655 -2.25 6.25 C-3.03890625 7.22453125 -3.8278125 8.1990625 -4.640625 9.203125 C-6.66465805 11.60247544 -8.74122349 13.82411437 -11 16 C-11.99 15.67 -12.98 15.34 -14 15 C-13.01 14.67 -12.02 14.34 -11 14 C-11 12.68 -11 11.36 -11 10 C-9.50390625 8.62109375 -9.50390625 8.62109375 -7.5625 7.4375 C-4.39618112 5.52207895 -4.39618112 5.52207895 -3 2 C-2.01 1.34 -1.02 0.68 0 0 Z " fill="#44B352" transform="translate(211,186)"/>
<path d="M0 0 C8.25 0 16.5 0 25 0 C21.85364235 3.14635765 18.63009555 3.15273675 14.3125 3.1875 C9.33866498 3.15054729 4.78801034 2.29530715 0 1 C0 0.67 0 0.34 0 0 Z " fill="#CEF4D4" transform="translate(149,183)"/>
<path d="M0 0 C2.97 1.32 5.94 2.64 9 4 C9 5.65 9 7.3 9 9 C6 8 6 8 4.1875 6.5 C1.48969488 4.65007649 -0.78325334 4.36553939 -4 4 C-2.68 2.68 -1.36 1.36 0 0 Z " fill="#D9D9D9" transform="translate(73,238)"/>
<path d="M0 0 C0.66 0.33 1.32 0.66 2 1 C-2.35407455 6.10477706 -7.84798598 9.36483779 -14 12 C-14.66 11.67 -15.32 11.34 -16 11 C-14.27278316 9.72651788 -12.54313762 8.45632943 -10.8125 7.1875 C-9.84957031 6.47980469 -8.88664062 5.77210937 -7.89453125 5.04296875 C-5.30857667 3.21779433 -2.80897441 1.46027858 0 0 Z " fill="#6ACC76" transform="translate(79,33)"/>
<path d="M0 0 C1.63129887 4.06285757 0.29968777 7.20102184 -0.9375 11.25 C-1.31777344 12.51328125 -1.69804688 13.7765625 -2.08984375 15.078125 C-2.39019531 16.04234375 -2.69054688 17.0065625 -3 18 C-2.01 18.33 -1.02 18.66 0 19 C-1.98 19.33 -3.96 19.66 -6 20 C-5.38251126 17.22729571 -4.75637544 14.45704402 -4.125 11.6875 C-3.95097656 10.90181641 -3.77695312 10.11613281 -3.59765625 9.30664062 C-3.42363281 8.54931641 -3.24960937 7.79199219 -3.0703125 7.01171875 C-2.91320801 6.31522217 -2.75610352 5.61872559 -2.59423828 4.90112305 C-2 3 -2 3 0 0 Z " fill="#47B256" transform="translate(38,203)"/>
<path d="M0 0 C5.47035213 3.79037089 9.89962427 7.75027653 14 13 C13.01 14.485 13.01 14.485 12 16 C11.67 15.01 11.34 14.02 11 13 C9.51750722 11.71087585 8.0305762 10.42500311 6.4921875 9.203125 C4.8800668 7.90329994 3.46284211 6.46284211 2 5 C1.34 4.67 0.68 4.34 0 4 C0 2.68 0 1.36 0 0 Z " fill="#65CC6F" transform="translate(192,43)"/>
<path d="M0 0 C0.33 0.66 0.66 1.32 1 2 C2.75449741 2.55082724 2.75449741 2.55082724 5 3 C8.33960555 4.03815454 11.67204076 5.09743865 15.00390625 6.16015625 C17.96284661 7.13495465 17.96284661 7.13495465 21 7 C21 7.66 21 8.32 21 9 C15.64365457 9.26162099 11.64603469 8.47710874 6.625 6.625 C5.40039062 6.18414062 4.17578125 5.74328125 2.9140625 5.2890625 C0 4 0 4 -1 2 C-0.67 1.34 -0.34 0.68 0 0 Z " fill="#3AAE4C" transform="translate(88,218)"/>
<path d="M0 0 C2 3 2 3 1.6796875 4.98046875 C-0.22170653 10.19545724 -2.40986157 15.08766849 -5 20 C-6.02826931 16.86332092 -5.99386675 15.16815258 -4.78515625 12.109375 C-4.37426758 11.04589844 -4.37426758 11.04589844 -3.95507812 9.9609375 C-3.66052734 9.23132813 -3.36597656 8.50171875 -3.0625 7.75 C-2.77181641 7.00492187 -2.48113281 6.25984375 -2.18164062 5.4921875 C-1.46426278 3.65758186 -0.73342561 1.82824935 0 0 Z " fill="#6DCA77" transform="translate(33,82)"/>
<path d="M0 0 C3.87853276 0.62876032 7.12174934 1.79813032 10.6875 3.4375 C12.11642578 4.08525391 12.11642578 4.08525391 13.57421875 4.74609375 C16 6 16 6 18 8 C16.35 8 14.7 8 13 8 C13 7.34 13 6.68 13 6 C12.36191406 5.95101562 11.72382813 5.90203125 11.06640625 5.8515625 C10.24011719 5.77679688 9.41382813 5.70203125 8.5625 5.625 C7.73878906 5.55539063 6.91507813 5.48578125 6.06640625 5.4140625 C5.38449219 5.27742188 4.70257813 5.14078125 4 5 C3.67 4.34 3.34 3.68 3 3 C2.01 2.67 1.02 2.34 0 2 C0 1.34 0 0.68 0 0 Z " fill="#65CC6F" transform="translate(161,27)"/>
<path d="M0 0 C7.26 0.33 14.52 0.66 22 1 C17.5 3.25 17.5 3.25 13.890625 3.1953125 C13.13652344 3.18886719 12.38242188 3.18242187 11.60546875 3.17578125 C10.43951172 3.15064453 10.43951172 3.15064453 9.25 3.125 C8.45722656 3.11597656 7.66445312 3.10695312 6.84765625 3.09765625 C4.89830719 3.07417012 2.94911425 3.03830137 1 3 C0.67 2.01 0.34 1.02 0 0 Z " fill="#36B247" transform="translate(150,185)"/>
<path d="M0 0 C3.3 0 6.6 0 10 0 C10.33 0.99 10.66 1.98 11 3 C11.99 3 12.98 3 14 3 C14 3.66 14 4.32 14 5 C8.72250715 4.46148032 4.74354436 3.22656164 0 1 C0 0.67 0 0.34 0 0 Z " fill="#DCF8DF" transform="translate(129,176)"/>
<path d="M0 0 C0.66 0.66 1.32 1.32 2 2 C1.34 2 0.68 2 0 2 C0 2.66 0 3.32 0 4 C-3.3 4.66 -6.6 5.32 -10 6 C-10 5.01 -10 4.02 -10 3 C-5.05 1.515 -5.05 1.515 0 0 Z " fill="#E4E4E4" transform="translate(50,240)"/>
<path d="M0 0 C1.98 0 3.96 0 6 0 C6 0.99 6 1.98 6 3 C0.61972975 4.19088986 -4.45291384 5.2919519 -10 5 C-6.99382731 1.99382731 -4.17618402 2.40414684 0 2 C0 1.34 0 0.68 0 0 Z " fill="#37B049" transform="translate(148,224)"/>
<path d="M0 0 C0.33 0.66 0.66 1.32 1 2 C2.32 2 3.64 2 5 2 C7.125 3.875 7.125 3.875 9 6 C9.66 6.66 10.32 7.32 11 8 C8.04655832 7.57807976 6.14151532 7.09310219 3.625 5.4375 C0.27426831 3.6025755 -2.23884737 3.77875573 -6 4 C-6 3.34 -6 2.68 -6 2 C-4.02 1.34 -2.04 0.68 0 0 Z " fill="#35AE4C" transform="translate(72,210)"/>
<path d="M0 0 C-0.33 0.99 -0.66 1.98 -1 3 C-3.43359375 4.1328125 -3.43359375 4.1328125 -6.4375 5.125 C-10.29204967 6.38669537 -10.29204967 6.38669537 -14 8 C-14.66 7.34 -15.32 6.68 -16 6 C-13.7101766 4.9955866 -11.4183401 3.99632388 -9.125 3 C-8.14853516 2.57074219 -8.14853516 2.57074219 -7.15234375 2.1328125 C-2.2265625 0 -2.2265625 0 0 0 Z " fill="#72CE7D" transform="translate(97,26)"/>
<path d="M0 0 C-0.33 0.99 -0.66 1.98 -1 3 C-4.5625 4.1875 -4.5625 4.1875 -8 5 C-8 5.66 -8 6.32 -8 7 C-12.455 7.495 -12.455 7.495 -17 8 C-14.65977289 5.65977289 -12.52287442 4.76995122 -9.5 3.4375 C-8.5203125 3.00308594 -7.540625 2.56867188 -6.53125 2.12109375 C-5.27828125 1.56615234 -5.27828125 1.56615234 -4 1 C-2 0 -2 0 0 0 Z " fill="#D5F7DA" transform="translate(181,216)"/>
<path d="M0 0 C0.33 0.66 0.66 1.32 1 2 C-4.80766296 3.5056904 -9.9981863 4.21824777 -16 4 C-10.99926683 1.19958943 -5.74548584 -0.34821126 0 0 Z " fill="#CBF5D0" transform="translate(73,213)"/>
<path d="M0 0 C1.44098611 0.76429661 2.87766054 1.53672555 4.3125 2.3125 C5.11300781 2.74175781 5.91351563 3.17101563 6.73828125 3.61328125 C8.83787272 4.90059554 10.35447721 6.18406708 12 8 C6.25 8.125 6.25 8.125 4 7 C4 6.34 4 5.68 4 5 C3.34 4.67 2.68 4.34 2 4 C0.875 1.9375 0.875 1.9375 0 0 Z " fill="#64C96A" transform="translate(180,35)"/>
<path d="M0 0 C0.33 0 0.66 0 1 0 C1.51385563 2.82620599 1.34138082 4.49003606 -0.265625 6.890625 C-1.78069438 8.6998826 -3.24435875 10.42174219 -5 12 C-5.66 12 -6.32 12 -7 12 C-5.61964507 9.14940657 -4.10703513 6.44119096 -2.4375 3.75 C-2.00308594 3.04359375 -1.56867188 2.3371875 -1.12109375 1.609375 C-0.75113281 1.07828125 -0.38117188 0.5471875 0 0 Z " fill="#DDFAE0" transform="translate(218,178)"/>
<path d="M0 0 C1.62477811 2.96162086 2.51695886 5.69266927 3.1875 9 C3.36667969 9.845625 3.54585937 10.69125 3.73046875 11.5625 C4.00334098 14.03021411 3.76424119 15.65849506 3 18 C0.06552643 15.06552643 0.53841577 11.81740544 0.375 7.875 C0.33632813 7.12089844 0.29765625 6.36679688 0.2578125 5.58984375 C0.16348969 3.72696816 0.08065338 1.86351745 0 0 Z " fill="#CEF3CF" transform="translate(24,136)"/>
<path d="M0 0 C1.32 0.66 2.64 1.32 4 2 C2.515 3.299375 2.515 3.299375 1 4.625 C-1.53414634 7.12345413 -1.96317186 7.66854671 -2.375 11.375 C-2.25125 12.24125 -2.1275 13.1075 -2 14 C-2.66 14 -3.32 14 -4 14 C-4.29296875 7.9453125 -4.29296875 7.9453125 -4 6 C-3.01 5.34 -2.02 4.68 -1 4 C-0.27617533 1.94074861 -0.27617533 1.94074861 0 0 Z " fill="#E5FBE6" transform="translate(100,106)"/>
<path d="M0 0 C0 0.66 0 1.32 0 2 C-3.3 2.66 -6.6 3.32 -10 4 C-10 3.01 -10 2.02 -10 1 C-3.375 -1.125 -3.375 -1.125 0 0 Z " fill="#E5E5E5" transform="translate(27,248)"/>
<path d="M0 0 C5.56890517 0.47986031 10.67067568 1.29915181 16 3 C15.67 3.66 15.34 4.32 15 5 C9.125 4.125 9.125 4.125 8 3 C6.845 2.855625 5.69 2.71125 4.5 2.5625 C3.345 2.376875 2.19 2.19125 1 2 C0.67 1.34 0.34 0.68 0 0 Z " fill="#68CA72" transform="translate(145,23)"/>
<path d="M0 0 C4.9723422 1.49170266 9.41845739 3.60457417 14 6 C13.01 6.66 12.02 7.32 11 8 C11 7.34 11 6.68 11 6 C10.113125 5.896875 9.22625 5.79375 8.3125 5.6875 C4.9173245 4.98284093 2.78057902 4.0445434 0 2 C0 1.34 0 0.68 0 0 Z " fill="#D8FAE3" transform="translate(74,215)"/>
<path d="M0 0 C3.10742423 1.46818668 5.90471739 3.20025 8.75 5.125 C9.94882813 5.93324219 9.94882813 5.93324219 11.171875 6.7578125 C11.77515625 7.16773438 12.3784375 7.57765625 13 8 C11.296875 8.70703125 11.296875 8.70703125 9 9 C6.640625 7.63671875 6.640625 7.63671875 4.25 5.6875 C3.45078125 5.05199219 2.6515625 4.41648438 1.828125 3.76171875 C1.22484375 3.18035156 0.6215625 2.59898437 0 2 C0 1.34 0 0.68 0 0 Z " fill="#DFFBE2" transform="translate(116,142)"/>
<path d="M0 0 C1.98 0 3.96 0 6 0 C6.0825 0.61875 6.165 1.2375 6.25 1.875 C6.81258459 4.18437567 6.81258459 4.18437567 9.0625 5.25 C9.701875 5.4975 10.34125 5.745 11 6 C10.67 6.99 10.34 7.98 10 9 C8.33043913 7.69118353 6.66441696 6.37785174 5 5.0625 C4.071875 4.33160156 3.14375 3.60070313 2.1875 2.84765625 C1.465625 2.23792969 0.74375 1.62820312 0 1 C0 0.67 0 0.34 0 0 Z " fill="#E5FCE8" transform="translate(189,40)"/>
<path d="M0 0 C-1.625 2 -1.625 2 -4 4 C-7.25 4.25 -7.25 4.25 -10 4 C-10 3.34 -10 2.68 -10 2 C-6.49223216 0.39644899 -3.85645121 -0.22036864 0 0 Z " fill="#2BB445" transform="translate(191,208)"/>
<path d="M0 0 C1.1171875 1.671875 1.1171875 1.671875 2 4 C1.3203125 6.578125 1.3203125 6.578125 0.125 9.25 C-0.26429688 10.14203125 -0.65359375 11.0340625 -1.0546875 11.953125 C-1.36664063 12.62859375 -1.67859375 13.3040625 -2 14 C-2.66 14 -3.32 14 -4 14 C-3.52188823 12.22888156 -3.0424722 10.45811517 -2.5625 8.6875 C-2.29566406 7.70136719 -2.02882812 6.71523437 -1.75390625 5.69921875 C-1.21920575 3.78482474 -0.62855462 1.88566385 0 0 Z " fill="#CBF6D1" transform="translate(229,151)"/>
<path d="M0 0 C0.99 0.33 1.98 0.66 3 1 C0.03 5.95 0.03 5.95 -3 11 C-3.66 10.67 -4.32 10.34 -5 10 C-5 9.34 -5 8.68 -5 8 C-4.34 8 -3.68 8 -3 8 C-2.690625 6.865625 -2.38125 5.73125 -2.0625 4.5625 C-1 1 -1 1 0 0 Z " fill="#5FC16A" transform="translate(70,74)"/>
<path d="M0 0 C1 2 1 2 0.44140625 3.9453125 C0.15136719 4.66460937 -0.13867188 5.38390625 -0.4375 6.125 C-0.72496094 6.84945312 -1.01242188 7.57390625 -1.30859375 8.3203125 C-1.53675781 8.87460938 -1.76492187 9.42890625 -2 10 C-3.32 9.67 -4.64 9.34 -6 9 C-4.02 6.03 -2.04 3.06 0 0 Z " fill="#6CC57B" transform="translate(45,62)"/>
<path d="M0 0 C3.76912568 2.43169399 3.76912568 2.43169399 4.8125 5 C5 7 5 7 4 10 C1.7448078 7.7448078 1.02276532 5.9952413 0 3 C0 2.01 0 1.02 0 0 Z " fill="#56C366" transform="translate(103,85)"/>
<path d="M0 0 C4.72463088 0.46319911 8.17057052 1.09891706 12 4 C12 4.66 12 5.32 12 6 C7.96479403 4.41037341 3.98188718 2.71767682 0 1 C0 0.67 0 0.34 0 0 Z " fill="#D7F8DB" transform="translate(169,29)"/>
<path d="M0 0 C0.99 0 1.98 0 3 0 C3 0.99 3 1.98 3 3 C-0.96 3 -4.92 3 -9 3 C-9 2.34 -9 1.68 -9 1 C-7.700625 1.020625 -6.40125 1.04125 -5.0625 1.0625 C-3.70834367 1.08399454 -2.35243917 1.07148199 -1 1 C-0.67 0.67 -0.34 0.34 0 0 Z " fill="#50C45E" transform="translate(89,64)"/>
<path d="M0 0 C0.99 0 1.98 0 3 0 C3.33 1.32 3.66 2.64 4 4 C0.37 3.67 -3.26 3.34 -7 3 C-7 2.67 -7 2.34 -7 2 C-4.69 2 -2.38 2 0 2 C0 1.34 0 0.68 0 0 Z " fill="#CFCFCF" transform="translate(113,250)"/>
<path d="M0 0 C-2.95711562 1.64284201 -5.62008426 2.6442194 -9 3 C-9.66 2.34 -10.32 1.68 -11 1 C-3.57142857 -1.42857143 -3.57142857 -1.42857143 0 0 Z " fill="#D2F6D9" transform="translate(46,221)"/>
<path d="M0 0 C5 7.5 5 7.5 5 11 C4.01 10.67 3.02 10.34 2 10 C0.47839986 6.3962102 0 3.94779314 0 0 Z " fill="#CBF7D6" transform="translate(31,163)"/>
<path d="M0 0 C0.66 0 1.32 0 2 0 C2 1.65 2 3.3 2 5 C0.35 5 -1.3 5 -3 5 C-2.67 3.68 -2.34 2.36 -2 1 C-1.67 1.33 -1.34 1.66 -1 2 C-0.67 1.34 -0.34 0.68 0 0 Z " fill="#2EAE46" transform="translate(38,216)"/>
<path d="M0 0 C0.68707555 2.49064888 1 4.37886292 1 7 C-0.375 8.6875 -0.375 8.6875 -2 10 C-2.66 10 -3.32 10 -4 10 C-2.66666667 6.66666667 -1.33333333 3.33333333 0 0 Z " fill="#D3F6DA" transform="translate(223,168)"/>
<path d="M0 0 C1 3 1 3 0.25 5.5625 C-1 8 -1 8 -4 10 C-3.67 8.35 -3.34 6.7 -3 5 C-2.34 5 -1.68 5 -1 5 C-0.67 3.35 -0.34 1.7 0 0 Z " fill="#F1FDEE" transform="translate(228,160)"/>
<path d="M0 0 C0.66 0.33 1.32 0.66 2 1 C2 1.66 2 2.32 2 3 C0.04072937 4.7143618 -1.95880212 6.38405168 -4 8 C-4.66 7.67 -5.32 7.34 -6 7 C-4.02 4.69 -2.04 2.38 0 0 Z " fill="#5CBE6B" transform="translate(105,105)"/>
<path d="M0 0 C-2.96178773 1.67110042 -5.37071192 2.32682752 -8.75 2.625 C-9.54921875 2.69976563 -10.3484375 2.77453125 -11.171875 2.8515625 C-11.77515625 2.90054687 -12.3784375 2.94953125 -13 3 C-9.19777044 -0.80222956 -5.07002404 -1.49118354 0 0 Z " fill="#D9FBE1" transform="translate(112,22)"/>
<path d="M0 0 C0 0.66 0 1.32 0 2 C-2.35438733 3.42944945 -3.48032433 4.08661261 -6.25 3.625 C-6.8275 3.41875 -7.405 3.2125 -8 3 C-4.93882432 0.37613513 -4.26826873 0 0 0 Z " fill="#30AE4A" transform="translate(168,220)"/>
<path d="M0 0 C0.33 0 0.66 0 1 0 C1 2.31 1 4.62 1 7 C1.99 7.33 2.98 7.66 4 8 C2.02 8.33 0.04 8.66 -2 9 C-1.34 6.03 -0.68 3.06 0 0 Z " fill="#52B267" transform="translate(34,214)"/>
<path d="M0 0 C0.6875 1.8125 0.6875 1.8125 1 4 C-0.4375 5.75 -0.4375 5.75 -2 7 C-2.99 6.67 -3.98 6.34 -5 6 C-4.01 5.67 -3.02 5.34 -2 5 C-2 3.68 -2 2.36 -2 1 C-1.34 0.67 -0.68 0.34 0 0 Z " fill="#39B34C" transform="translate(202,195)"/>
<path d="M0 0 C0.66 0.33 1.32 0.66 2 1 C0.68 3.64 -0.64 6.28 -2 9 C-3 5 -3 5 -2.125 2.8125 C-1 1 -1 1 0 0 Z " fill="#D7D7D7" transform="translate(245,175)"/>
<path d="M0 0 C0.33 0.66 0.66 1.32 1 2 C-1 5 -1 5 -3.625 5.6875 C-4.800625 5.8421875 -4.800625 5.8421875 -6 6 C-2.25 1.125 -2.25 1.125 0 0 Z " fill="#DDFAE1" transform="translate(198,203)"/>
<path d="M0 0 C4.455 1.98 4.455 1.98 9 4 C5.87438528 5.04187157 4.95319818 5.23843794 2 4 C1.34 2.68 0.68 1.36 0 0 Z " fill="#DCFADD" transform="translate(130,151)"/>
<path d="M0 0 C4.95 0 9.9 0 15 0 C15 0.33 15 0.66 15 1 C10.05 1 5.1 1 0 1 C0 0.67 0 0.34 0 0 Z " fill="#C9C9C9" transform="translate(112,255)"/>
<path d="M0 0 C3.36591866 1.44253657 5.51047079 3.33264727 8 6 C7.67 6.66 7.34 7.32 7 8 C5.83035398 6.8572081 4.66435444 5.71068285 3.5 4.5625 C2.8503125 3.92441406 2.200625 3.28632812 1.53125 2.62890625 C0 1 0 1 0 0 Z " fill="#E1E1E1" transform="translate(215,32)"/>
<path d="M0 0 C0.33 0 0.66 0 1 0 C1 2.31 1 4.62 1 7 C0.67 7 0.34 7 0 7 C0 4.69 0 2.38 0 0 Z " fill="#FEFEFE" transform="translate(0,140)"/>
<path d="M0 0 C0.33 0 0.66 0 1 0 C1 2.31 1 4.62 1 7 C0.67 7 0.34 7 0 7 C0 4.69 0 2.38 0 0 Z " fill="#CDCDCD" transform="translate(0,107)"/>
<path d="M0 0 C1.98 0 3.96 0 6 0 C6 0.33 6 0.66 6 1 C4.02 1 2.04 1 0 1 C0 0.67 0 0.34 0 0 Z " fill="#BCBCBC" transform="translate(106,254)"/>
<path d="M0 0 C0.33 0 0.66 0 1 0 C1 1.98 1 3.96 1 6 C0.67 6 0.34 6 0 6 C0 4.02 0 2.04 0 0 Z " fill="#C8C8C8" transform="translate(1,147)"/>
<path d="M0 0 C1.65 0 3.3 0 5 0 C5 0.33 5 0.66 5 1 C3.35 1 1.7 1 0 1 C0 0.67 0 0.34 0 0 Z " fill="#E5E5E5" transform="translate(151,253)"/>
<path d="M0 0 C1.65 0 3.3 0 5 0 C5 0.33 5 0.66 5 1 C3.35 1 1.7 1 0 1 C0 0.67 0 0.34 0 0 Z " fill="#BDBDBD" transform="translate(101,253)"/>
<path d="M0 0 C0.33 0 0.66 0 1 0 C1 1.65 1 3.3 1 5 C0.67 5 0.34 5 0 5 C0 3.35 0 1.7 0 0 Z " fill="#C7C7C7" transform="translate(255,148)"/>
<path d="M0 0 C0.33 0 0.66 0 1 0 C1 1.65 1 3.3 1 5 C0.67 5 0.34 5 0 5 C0 3.35 0 1.7 0 0 Z " fill="#E0E0E0" transform="translate(1,101)"/>
<path d="M0 0 C0.33 0 0.66 0 1 0 C1 1.65 1 3.3 1 5 C0.67 5 0.34 5 0 5 C0 3.35 0 1.7 0 0 Z " fill="#F1F1F1" transform="translate(255,101)"/>
<path d="M0 0 C0.33 0 0.66 0 1 0 C1 1.65 1 3.3 1 5 C0.67 5 0.34 5 0 5 C0 3.35 0 1.7 0 0 Z " fill="#F1F1F1" transform="translate(254,96)"/>
<path d="M0 0 C0.66 0.33 1.32 0.66 2 1 C1.01 1.66 0.02 2.32 -1 3 C-0.67 2.01 -0.34 1.02 0 0 Z " fill="#999999" transform="translate(38,34)"/>
<path d="M0 0 C1.65 0 3.3 0 5 0 C5 0.33 5 0.66 5 1 C3.35 1 1.7 1 0 1 C0 0.67 0 0.34 0 0 Z " fill="#FDFDFD" transform="translate(100,0)"/>
<path d="M0 0 C4 1 4 1 4 1 Z " fill="#CDCDCD" transform="translate(156,252)"/>
<path d="M0 0 C4 1 4 1 4 1 Z " fill="#EBEBEB" transform="translate(97,252)"/>
<path d="M0 0 C4 1 4 1 4 1 Z " fill="#DCDCDC" transform="translate(20,252)"/>
<path d="M0 0 C4 1 4 1 4 1 Z " fill="#D5D5D5" transform="translate(160,251)"/>
<path d="M0 0 C4 1 4 1 4 1 Z " fill="#D7D7D7" transform="translate(24,251)"/>
<path d="M0 0 C4 1 4 1 4 1 Z " fill="#AEADAE" transform="translate(28,250)"/>
<path d="M0 0 C1 4 1 4 1 4 Z " fill="#EBEBEB" transform="translate(0,246)"/>
<path d="M0 0 C4 1 4 1 4 1 Z " fill="#D7D7D7" transform="translate(43,246)"/>
<path d="M0 0 C4 1 4 1 4 1 Z " fill="#CFCFCF" transform="translate(47,245)"/>
<path d="M0 0 C4 1 4 1 4 1 Z " fill="#DADADA" transform="translate(62,241)"/>
<path d="M0 0 C1 4 1 4 1 4 Z " fill="#ECECEC" transform="translate(3,235)"/>
<path d="M0 0 C1 4 1 4 1 4 Z " fill="#EDEDED" transform="translate(6,224)"/>
<path d="M0 0 C1 4 1 4 1 4 Z " fill="#AEAEAE" transform="translate(9,213)"/>
<path d="M0 0 C1 4 1 4 1 4 Z " fill="#EDEDED" transform="translate(11,206)"/>
<path d="M0 0 C1 4 1 4 1 4 Z " fill="#AFAFAF" transform="translate(12,202)"/>
<path d="M0 0 C1 4 1 4 1 4 Z " fill="#F0F0F0" transform="translate(14,195)"/>
<path d="M0 0 C1 4 1 4 1 4 Z " fill="#7E7E7E" transform="translate(15,191)"/>
<path d="M0 0 C1 4 1 4 1 4 Z " fill="#EFEFEF" transform="translate(3,157)"/>
<path d="M0 0 C1 4 1 4 1 4 Z " fill="#DCDCDC" transform="translate(253,157)"/>
<path d="M0 0 C1 4 1 4 1 4 Z " fill="#ECECEC" transform="translate(2,153)"/>
<path d="M0 0 C1 4 1 4 1 4 Z " fill="#DADADA" transform="translate(254,153)"/>
<path d="M0 0 C1 4 1 4 1 4 Z " fill="#EFEFEF" transform="translate(2,97)"/>
<path d="M0 0 C1 4 1 4 1 4 Z " fill="#ECECEC" transform="translate(3,93)"/>
<path d="M0 0 C4 1 4 1 4 1 Z " fill="#FDFDFD" transform="translate(157,1)"/>
<path d="M0 0 C4 1 4 1 4 1 Z " fill="#FEFEFE" transform="translate(96,1)"/>
<path d="M0 0 C3 1 3 1 3 1 Z " fill="#FCFCFC" transform="translate(9,255)"/>
<path d="M0 0 C3 1 3 1 3 1 Z " fill="#CECECE" transform="translate(13,254)"/>
<path d="M0 0 C3 1 3 1 3 1 Z " fill="#E7E7E7" transform="translate(17,253)"/>
<path d="M0 0 C3 1 3 1 3 1 Z " fill="#C3C3C3" transform="translate(94,251)"/>
<path d="M0 0 C3 1 3 1 3 1 Z " fill="#E4E4E4" transform="translate(164,250)"/>
<path d="M0 0 C3 1 3 1 3 1 Z " fill="#E3E3E3" transform="translate(90,250)"/>
<path d="M0 0 C3 1 3 1 3 1 Z " fill="#FEFEFE" transform="translate(167,249)"/>
<path d="M0 0 C3 1 3 1 3 1 Z " fill="#E9E9E9" transform="translate(87,249)"/>
<path d="M0 0 C3 1 3 1 3 1 Z " fill="#C8C8C8" transform="translate(32,249)"/>
<path d="M0 0 C3 1 3 1 3 1 Z " fill="#BFBFBF" transform="translate(36,248)"/>
<path d="M0 0 C3 1 3 1 3 1 Z " fill="#CFCFCF" transform="translate(51,244)"/>
<path d="" fill="#FCFCFC" transform="translate(0,0)"/>
<path d="M0 0 C3 1 3 1 3 1 Z " fill="#A0A0A0" transform="translate(55,243)"/>
<path d="" fill="#C9C9C9" transform="translate(0,0)"/>
<path d="" fill="#FCFCFC" transform="translate(0,0)"/>
<path d="" fill="#E8E8E8" transform="translate(0,0)"/>
<path d="" fill="#FFFFFF" transform="translate(0,0)"/>
<path d="" fill="#EBEBEB" transform="translate(0,0)"/>
<path d="" fill="#FCFBFC" transform="translate(0,0)"/>
<path d="" fill="#FEFEFE" transform="translate(0,0)"/>
<path d="" fill="#FBFBFB" transform="translate(0,0)"/>
<path d="" fill="#E9E9E9" transform="translate(0,0)"/>
<path d="" fill="#F8F8F8" transform="translate(0,0)"/>
<path d="" fill="#BEBEBE" transform="translate(0,0)"/>
<path d="" fill="#C0C0C0" transform="translate(0,0)"/>
<path d="" fill="#E4E4E4" transform="translate(0,0)"/>
<path d="" fill="#F8F8F8" transform="translate(0,0)"/>
<path d="" fill="#C1C1C1" transform="translate(0,0)"/>
<path d="" fill="#E8E8E8" transform="translate(0,0)"/>
<path d="" fill="#F9F8F9" transform="translate(0,0)"/>
<path d="" fill="#949494" transform="translate(0,0)"/>
<path d="" fill="#E1E1E1" transform="translate(0,0)"/>
<path d="M0 0 C3 1 3 1 3 1 Z " fill="#FCFBFC" transform="translate(81,6)"/>
<path d="M0 0 C3 1 3 1 3 1 Z " fill="#FDFDFD" transform="translate(168,4)"/>
<path d="M0 0 C3 1 3 1 3 1 Z " fill="#FCFBFC" transform="translate(165,3)"/>
<path d="M0 0 C3 1 3 1 3 1 Z " fill="#FFFFFF" transform="translate(161,2)"/>
<path d="M0 0 C3 1 3 1 3 1 Z " fill="#F9F9F9" transform="translate(93,2)"/>
<path d="M0 0 C2 1 2 1 2 1 Z " fill="#D2D2D2" transform="translate(173,247)"/>
<path d="M0 0 C2 1 2 1 2 1 Z " fill="#D3D3D3" transform="translate(82,247)"/>
<path d="M0 0 C2 1 2 1 2 1 Z " fill="#D0D0D0" transform="translate(178,245)"/>
<path d="M0 0 C2 1 2 1 2 1 Z " fill="#FDFDFD" transform="translate(77,245)"/>
<path d="M0 0 C2 1 2 1 2 1 Z " fill="#FBFBFB" transform="translate(180,244)"/>
<path d="M0 0 C2 1 2 1 2 1 Z " fill="#D6D6D6" transform="translate(75,244)"/>
<path d="M0 0 C2 1 2 1 2 1 Z " fill="#BDBDBD" transform="translate(182,243)"/>
<path d="M0 0 C2 1 2 1 2 1 Z " fill="#FAFAFA" transform="translate(73,243)"/>
<path d="M0 0 C2 1 2 1 2 1 Z " fill="#F5F5F5" transform="translate(188,240)"/>
<path d="" fill="#D3D3D3" transform="translate(0,0)"/>
<path d="" fill="#FDFDFD" transform="translate(0,0)"/>
<path d="" fill="#FCFCFC" transform="translate(0,0)"/>
<path d="" fill="#F4F4F4" transform="translate(0,0)"/>
<path d="" fill="#FFFFFF" transform="translate(0,0)"/>
<path d="" fill="#FEFEFF" transform="translate(0,0)"/>
<path d="" fill="#FBFBFB" transform="translate(0,0)"/>
<path d="" fill="#FEFEFE" transform="translate(0,0)"/>
<path d="" fill="#FEFEFE" transform="translate(0,0)"/>
<path d="" fill="#F9F8F9" transform="translate(0,0)"/>
<path d="" fill="#FEFEFE" transform="translate(0,0)"/>
<path d="" fill="#BFBFBF" transform="translate(0,0)"/>
<path d="" fill="#FCFCFC" transform="translate(0,0)"/>
<path d="" fill="#FFFFFF" transform="translate(0,0)"/>
<path d="" fill="#FCFCFC" transform="translate(0,0)"/>
<path d="" fill="#C1C1C1" transform="translate(0,0)"/>
<path d="" fill="#DEDEDE" transform="translate(0,0)"/>
<path d="" fill="#DFDFDF" transform="translate(0,0)"/>
<path d="" fill="#F9F9F9" transform="translate(0,0)"/>
<path d="" fill="#D0D0D0" transform="translate(0,0)"/>
<path d="" fill="#F7F7F7" transform="translate(0,0)"/>
<path d="" fill="#DFDFDF" transform="translate(0,0)"/>
<path d="" fill="#DFDFDF" transform="translate(0,0)"/>
<path d="" fill="#DEDEDE" transform="translate(0,0)"/>
<path d="" fill="#DEDEDE" transform="translate(0,0)"/>
<path d="" fill="#FEFEFE" transform="translate(0,0)"/>
<path d="" fill="#DBDBDB" transform="translate(0,0)"/>
<path d="" fill="#FEFEFE" transform="translate(0,0)"/>
<path d="" fill="#E1E1E1" transform="translate(0,0)"/>
<path d="" fill="#FDFDFD" transform="translate(0,0)"/>
<path d="" fill="#FEFEFE" transform="translate(0,0)"/>
<path d="" fill="#FDFDFD" transform="translate(0,0)"/>
<path d="" fill="#C0C0C0" transform="translate(0,0)"/>
<path d="" fill="#D6D6D6" transform="translate(0,0)"/>
<path d="" fill="#FEFEFE" transform="translate(0,0)"/>
<path d="" fill="#FEFEFE" transform="translate(0,0)"/>
<path d="" fill="#FFFFFF" transform="translate(0,0)"/>
<path d="" fill="#C3C3C3" transform="translate(0,0)"/>
<path d="" fill="#FFFFFF" transform="translate(0,0)"/>
<path d="" fill="#FCFCFC" transform="translate(0,0)"/>
<path d="" fill="#FFFFFF" transform="translate(0,0)"/>
<path d="" fill="#FEFEFE" transform="translate(0,0)"/>
<path d="" fill="#CFCFCF" transform="translate(0,0)"/>
<path d="" fill="#FAFAFA" transform="translate(0,0)"/>
<path d="" fill="#BEBEBE" transform="translate(0,0)"/>
<path d="" fill="#7D7D7D" transform="translate(0,0)"/>
<path d="" fill="#F9F9F9" transform="translate(0,0)"/>
<path d="" fill="#FFFFFF" transform="translate(0,0)"/>
<path d="M0 0 C2 1 2 1 2 1 Z " fill="#FEFEFE" transform="translate(77,8)"/>
<path d="M0 0 C2 1 2 1 2 1 Z " fill="#D3D3D3" transform="translate(176,7)"/>
<path d="M0 0 C2 1 2 1 2 1 Z " fill="#FAFAFA" transform="translate(79,7)"/>
<path d="M0 0 C2 1 2 1 2 1 Z " fill="#FEFEFE" transform="translate(171,5)"/>
<path d="M0 0 C2 1 2 1 2 1 Z " fill="#FFFFFF" transform="translate(87,4)"/>
<path d="" fill="#ABABAB" transform="translate(0,0)"/>
<path d="" fill="#C1C1C1" transform="translate(0,0)"/>
<path d="" fill="#FFFFFF" transform="translate(0,0)"/>
<path d="" fill="#BBBBBB" transform="translate(0,0)"/>
<path d="" fill="#B9B9B9" transform="translate(0,0)"/>
<path d="" fill="#CCCCCC" transform="translate(0,0)"/>
<path d="" fill="#C6C6C6" transform="translate(0,0)"/>
<path d="" fill="#C5C5C5" transform="translate(0,0)"/>
<path d="" fill="#C6C6C6" transform="translate(0,0)"/>
<path d="" fill="#D2D2D2" transform="translate(0,0)"/>
<path d="" fill="#BEBEBE" transform="translate(0,0)"/>
<path d="" fill="#C1C1C1" transform="translate(0,0)"/>
<path d="" fill="#FEFEFE" transform="translate(0,0)"/>
<path d="" fill="#FFFFFF" transform="translate(0,0)"/>
<path d="" fill="#A8A8A8" transform="translate(0,0)"/>
<path d="" fill="#FFFFFF" transform="translate(0,0)"/>
<path d="" fill="#FFFFFF" transform="translate(0,0)"/>
<path d="" fill="#BDBDBD" transform="translate(0,0)"/>
<path d="" fill="#A8A8A8" transform="translate(0,0)"/>
<path d="" fill="#C6C6C6" transform="translate(0,0)"/>
<path d="" fill="#B0B0B0" transform="translate(0,0)"/>
<path d="" fill="#FEFEFE" transform="translate(0,0)"/>
<path d="" fill="#FEFEFE" transform="translate(0,0)"/>
<path d="" fill="#F8F8F8" transform="translate(0,0)"/>
<path d="" fill="#C2C2C2" transform="translate(0,0)"/>
<path d="" fill="#FAFAFA" transform="translate(0,0)"/>
<path d="" fill="#FEFEFE" transform="translate(0,0)"/>
<path d="" fill="#FFFFFF" transform="translate(0,0)"/>
<path d="" fill="#FCFBFC" transform="translate(0,0)"/>
<path d="" fill="#FFFFFF" transform="translate(0,0)"/>
<path d="" fill="#FAFAFA" transform="translate(0,0)"/>
<path d="" fill="#FDFDFD" transform="translate(0,0)"/>
<path d="" fill="#F9F9F9" transform="translate(0,0)"/>
<path d="" fill="#A7A6A7" transform="translate(0,0)"/>
<path d="" fill="#FCFBFC" transform="translate(0,0)"/>
<path d="" fill="#FAFAFA" transform="translate(0,0)"/>
<path d="" fill="#FDFDFD" transform="translate(0,0)"/>
<path d="" fill="#AAAAAA" transform="translate(0,0)"/>
<path d="" fill="#FFFFFF" transform="translate(0,0)"/>
<path d="" fill="#FDFDFD" transform="translate(0,0)"/>
<path d="" fill="#BEBEBE" transform="translate(0,0)"/>
<path d="" fill="#FEFEFE" transform="translate(0,0)"/>
<path d="" fill="#FFFFFF" transform="translate(0,0)"/>
<path d="" fill="#FFFFFF" transform="translate(0,0)"/>
<path d="" fill="#C6C6C6" transform="translate(0,0)"/>
<path d="" fill="#FFFFFF" transform="translate(0,0)"/>
<path d="" fill="#C2C2C2" transform="translate(0,0)"/>
<path d="" fill="#C5C5C5" transform="translate(0,0)"/>
<path d="" fill="#FFFFFF" transform="translate(0,0)"/>
<path d="" fill="#BEBEBE" transform="translate(0,0)"/>
<path d="" fill="#FEFEFE" transform="translate(0,0)"/>
<path d="" fill="#C1C1C1" transform="translate(0,0)"/>
<path d="" fill="#FFFFFF" transform="translate(0,0)"/>
<path d="" fill="#FFFFFF" transform="translate(0,0)"/>
<path d="" fill="#FDFDFD" transform="translate(0,0)"/>
<path d="" fill="#FFFFFF" transform="translate(0,0)"/>
<path d="" fill="#FFFFFF" transform="translate(0,0)"/>
<path d="" fill="#FFFFFF" transform="translate(0,0)"/>
<path d="" fill="#C6C6C6" transform="translate(0,0)"/>
<path d="" fill="#C4C4C4" transform="translate(0,0)"/>
<path d="" fill="#FFFFFF" transform="translate(0,0)"/>
<path d="" fill="#FEFEFE" transform="translate(0,0)"/>
<path d="" fill="#C1C1C1" transform="translate(0,0)"/>
<path d="" fill="#F6F6F6" transform="translate(0,0)"/>
</svg>
